<mxfile host="Electron" modified="2023-09-15T09:15:43.070Z" agent="Mozilla/5.0 (X11; Linux x86_64) AppleWebKit/537.36 (KHTML, like Gecko) draw.io/21.3.7 Chrome/112.0.5615.204 Electron/24.5.0 Safari/537.36" etag="zsESuvshYkcjEq8ryrxf" version="21.3.7" type="device">
  <diagram name="Page-1" id="i_ybuKMBjvxl0eLwF6m_">
    <mxGraphModel dx="889" dy="527" grid="1" gridSize="10" guides="1" tooltips="1" connect="1" arrows="1" fold="1" page="1" pageScale="1" pageWidth="3300" pageHeight="4681" math="0" shadow="0">
      <root>
        <mxCell id="0" />
        <mxCell id="1" parent="0" />
        <mxCell id="nfyO1SeyHSIwx6g21UcW-7" style="rounded=0;orthogonalLoop=1;jettySize=auto;html=1;exitX=0.5;exitY=0.5;exitDx=0;exitDy=0;exitPerimeter=0;entryX=0;entryY=1;entryDx=0;entryDy=0;endArrow=none;endFill=0;" edge="1" parent="1" source="nfyO1SeyHSIwx6g21UcW-1" target="nfyO1SeyHSIwx6g21UcW-4">
          <mxGeometry relative="1" as="geometry" />
        </mxCell>
        <mxCell id="nfyO1SeyHSIwx6g21UcW-1" value="Agent" style="shape=umlActor;verticalLabelPosition=bottom;verticalAlign=top;html=1;outlineConnect=0;" vertex="1" parent="1">
          <mxGeometry x="970" y="930" width="30" height="60" as="geometry" />
        </mxCell>
        <mxCell id="nfyO1SeyHSIwx6g21UcW-4" value="doit être identifiable" style="ellipse;whiteSpace=wrap;html=1;" vertex="1" parent="1">
          <mxGeometry x="1100" y="830" width="120" height="80" as="geometry" />
        </mxCell>
        <mxCell id="nfyO1SeyHSIwx6g21UcW-8" style="rounded=0;orthogonalLoop=1;jettySize=auto;html=1;exitX=-0.05;exitY=0.488;exitDx=0;exitDy=0;entryX=1;entryY=1;entryDx=0;entryDy=0;exitPerimeter=0;" edge="1" parent="1" source="nfyO1SeyHSIwx6g21UcW-5" target="nfyO1SeyHSIwx6g21UcW-4">
          <mxGeometry relative="1" as="geometry" />
        </mxCell>
        <mxCell id="nfyO1SeyHSIwx6g21UcW-5" value="par carte RFID" style="ellipse;whiteSpace=wrap;html=1;" vertex="1" parent="1">
          <mxGeometry x="1230" y="890" width="120" height="80" as="geometry" />
        </mxCell>
        <mxCell id="nfyO1SeyHSIwx6g21UcW-13" style="rounded=0;orthogonalLoop=1;jettySize=auto;html=1;exitX=0.5;exitY=1;exitDx=0;exitDy=0;entryX=0;entryY=0;entryDx=0;entryDy=0;dashed=1;" edge="1" parent="1" source="nfyO1SeyHSIwx6g21UcW-9" target="nfyO1SeyHSIwx6g21UcW-11">
          <mxGeometry relative="1" as="geometry" />
        </mxCell>
        <mxCell id="nfyO1SeyHSIwx6g21UcW-14" value="&amp;lt;&amp;lt;include&amp;gt;&amp;gt;" style="edgeLabel;html=1;align=center;verticalAlign=middle;resizable=0;points=[];" vertex="1" connectable="0" parent="nfyO1SeyHSIwx6g21UcW-13">
          <mxGeometry x="-0.2962" y="-3" relative="1" as="geometry">
            <mxPoint as="offset" />
          </mxGeometry>
        </mxCell>
        <mxCell id="nfyO1SeyHSIwx6g21UcW-36" style="rounded=0;orthogonalLoop=1;jettySize=auto;html=1;exitX=0;exitY=0.5;exitDx=0;exitDy=0;entryX=0.5;entryY=0.5;entryDx=0;entryDy=0;entryPerimeter=0;endArrow=none;endFill=0;" edge="1" parent="1" source="nfyO1SeyHSIwx6g21UcW-9" target="nfyO1SeyHSIwx6g21UcW-1">
          <mxGeometry relative="1" as="geometry" />
        </mxCell>
        <mxCell id="nfyO1SeyHSIwx6g21UcW-9" value="système d&#39;energie" style="ellipse;whiteSpace=wrap;html=1;" vertex="1" parent="1">
          <mxGeometry x="1180" y="970" width="120" height="80" as="geometry" />
        </mxCell>
        <mxCell id="nfyO1SeyHSIwx6g21UcW-12" style="rounded=0;orthogonalLoop=1;jettySize=auto;html=1;exitX=1;exitY=0;exitDx=0;exitDy=0;entryX=0;entryY=1;entryDx=0;entryDy=0;" edge="1" parent="1" source="nfyO1SeyHSIwx6g21UcW-10" target="nfyO1SeyHSIwx6g21UcW-9">
          <mxGeometry relative="1" as="geometry" />
        </mxCell>
        <mxCell id="nfyO1SeyHSIwx6g21UcW-10" value="" style="ellipse;whiteSpace=wrap;html=1;" vertex="1" parent="1">
          <mxGeometry x="1060" y="1050" width="120" height="80" as="geometry" />
        </mxCell>
        <mxCell id="nfyO1SeyHSIwx6g21UcW-11" value="" style="ellipse;whiteSpace=wrap;html=1;" vertex="1" parent="1">
          <mxGeometry x="1240" y="1080" width="120" height="80" as="geometry" />
        </mxCell>
        <mxCell id="nfyO1SeyHSIwx6g21UcW-17" value="" style="group" vertex="1" connectable="0" parent="1">
          <mxGeometry x="1480" y="1120" width="60" height="70" as="geometry" />
        </mxCell>
        <mxCell id="nfyO1SeyHSIwx6g21UcW-15" value="" style="shape=cube;whiteSpace=wrap;html=1;boundedLbl=1;backgroundOutline=1;darkOpacity=0.05;darkOpacity2=0.1;size=10;" vertex="1" parent="nfyO1SeyHSIwx6g21UcW-17">
          <mxGeometry x="10" width="40" height="40" as="geometry" />
        </mxCell>
        <mxCell id="nfyO1SeyHSIwx6g21UcW-16" value="distributeur d&#39;energie electrique" style="text;html=1;strokeColor=none;fillColor=none;align=center;verticalAlign=middle;whiteSpace=wrap;rounded=0;" vertex="1" parent="nfyO1SeyHSIwx6g21UcW-17">
          <mxGeometry y="40" width="60" height="30" as="geometry" />
        </mxCell>
        <mxCell id="nfyO1SeyHSIwx6g21UcW-18" value="" style="group" vertex="1" connectable="0" parent="1">
          <mxGeometry x="1480" y="1030" width="60" height="70" as="geometry" />
        </mxCell>
        <mxCell id="nfyO1SeyHSIwx6g21UcW-19" value="" style="shape=cube;whiteSpace=wrap;html=1;boundedLbl=1;backgroundOutline=1;darkOpacity=0.05;darkOpacity2=0.1;size=10;" vertex="1" parent="nfyO1SeyHSIwx6g21UcW-18">
          <mxGeometry x="10" width="40" height="40" as="geometry" />
        </mxCell>
        <mxCell id="nfyO1SeyHSIwx6g21UcW-20" value="Source d&#39;energie secondaire" style="text;html=1;strokeColor=none;fillColor=none;align=center;verticalAlign=middle;whiteSpace=wrap;rounded=0;" vertex="1" parent="nfyO1SeyHSIwx6g21UcW-18">
          <mxGeometry y="40" width="60" height="30" as="geometry" />
        </mxCell>
        <mxCell id="nfyO1SeyHSIwx6g21UcW-21" value="" style="group" vertex="1" connectable="0" parent="1">
          <mxGeometry x="1480" y="840" width="60" height="70" as="geometry" />
        </mxCell>
        <mxCell id="nfyO1SeyHSIwx6g21UcW-22" value="" style="shape=cube;whiteSpace=wrap;html=1;boundedLbl=1;backgroundOutline=1;darkOpacity=0.05;darkOpacity2=0.1;size=10;" vertex="1" parent="nfyO1SeyHSIwx6g21UcW-21">
          <mxGeometry x="10" width="40" height="40" as="geometry" />
        </mxCell>
        <mxCell id="nfyO1SeyHSIwx6g21UcW-23" value="exploitant" style="text;html=1;strokeColor=none;fillColor=none;align=center;verticalAlign=middle;whiteSpace=wrap;rounded=0;" vertex="1" parent="nfyO1SeyHSIwx6g21UcW-21">
          <mxGeometry y="40" width="60" height="30" as="geometry" />
        </mxCell>
        <mxCell id="nfyO1SeyHSIwx6g21UcW-24" value="" style="group" vertex="1" connectable="0" parent="1">
          <mxGeometry x="1480" y="940" width="60" height="70" as="geometry" />
        </mxCell>
        <mxCell id="nfyO1SeyHSIwx6g21UcW-25" value="" style="shape=cube;whiteSpace=wrap;html=1;boundedLbl=1;backgroundOutline=1;darkOpacity=0.05;darkOpacity2=0.1;size=10;" vertex="1" parent="nfyO1SeyHSIwx6g21UcW-24">
          <mxGeometry x="10" width="40" height="40" as="geometry" />
        </mxCell>
        <mxCell id="nfyO1SeyHSIwx6g21UcW-26" value="Voiture" style="text;html=1;strokeColor=none;fillColor=none;align=center;verticalAlign=middle;whiteSpace=wrap;rounded=0;" vertex="1" parent="nfyO1SeyHSIwx6g21UcW-24">
          <mxGeometry y="40" width="60" height="30" as="geometry" />
        </mxCell>
        <mxCell id="nfyO1SeyHSIwx6g21UcW-31" style="rounded=0;orthogonalLoop=1;jettySize=auto;html=1;exitX=0;exitY=0;exitDx=0;exitDy=15;exitPerimeter=0;entryX=1;entryY=0.5;entryDx=0;entryDy=0;endArrow=none;endFill=0;" edge="1" parent="1" source="nfyO1SeyHSIwx6g21UcW-22" target="nfyO1SeyHSIwx6g21UcW-4">
          <mxGeometry relative="1" as="geometry" />
        </mxCell>
        <mxCell id="nfyO1SeyHSIwx6g21UcW-32" style="rounded=0;orthogonalLoop=1;jettySize=auto;html=1;exitX=0;exitY=0;exitDx=0;exitDy=15;exitPerimeter=0;entryX=1;entryY=0.5;entryDx=0;entryDy=0;endArrow=none;endFill=0;" edge="1" parent="1" source="nfyO1SeyHSIwx6g21UcW-22" target="nfyO1SeyHSIwx6g21UcW-9">
          <mxGeometry relative="1" as="geometry" />
        </mxCell>
        <mxCell id="nfyO1SeyHSIwx6g21UcW-33" style="rounded=0;orthogonalLoop=1;jettySize=auto;html=1;exitX=0;exitY=0;exitDx=0;exitDy=15;exitPerimeter=0;entryX=1;entryY=0.5;entryDx=0;entryDy=0;endArrow=none;endFill=0;" edge="1" parent="1" source="nfyO1SeyHSIwx6g21UcW-25" target="nfyO1SeyHSIwx6g21UcW-9">
          <mxGeometry relative="1" as="geometry" />
        </mxCell>
        <mxCell id="nfyO1SeyHSIwx6g21UcW-34" style="rounded=0;orthogonalLoop=1;jettySize=auto;html=1;exitX=0;exitY=0;exitDx=0;exitDy=15;exitPerimeter=0;endArrow=none;endFill=0;entryX=1;entryY=0.5;entryDx=0;entryDy=0;" edge="1" parent="1" source="nfyO1SeyHSIwx6g21UcW-19" target="nfyO1SeyHSIwx6g21UcW-9">
          <mxGeometry relative="1" as="geometry">
            <mxPoint x="1310" y="1000" as="targetPoint" />
          </mxGeometry>
        </mxCell>
        <mxCell id="nfyO1SeyHSIwx6g21UcW-35" style="rounded=0;orthogonalLoop=1;jettySize=auto;html=1;exitX=0;exitY=0;exitDx=0;exitDy=15;exitPerimeter=0;endArrow=none;endFill=0;entryX=1;entryY=0.5;entryDx=0;entryDy=0;" edge="1" parent="1" source="nfyO1SeyHSIwx6g21UcW-15" target="nfyO1SeyHSIwx6g21UcW-9">
          <mxGeometry relative="1" as="geometry">
            <mxPoint x="1310" y="1000" as="targetPoint" />
          </mxGeometry>
        </mxCell>
      </root>
    </mxGraphModel>
  </diagram>
</mxfile>
